_________________________  Visit us at _________________________
  
http://p2pdl.com  ____________________________  http://p2pdl.com


Journey to the West Conquering the Demons 2013 BRRip 480p x264 - VYTO


Genre: Adventure | Comedy | Fantasy
Plot: Demon hunter Chen Xuanzhang (Wen Zhang) believes that he can purify any demon through love.
However, his belief is shaken when his attempt to defeat a demon fish ends in a family's death and
a victory for violent demon hunter Duan (Shu Qi). After getting encouragement from his master, Xuanzhang
soldiers on to hunting down a demonic hog with the help of Duan, who has fallen in love with Xuanzhang. 
Despite help from other demon hunters, the hog gets away. As a last resort, Xuanzhang and Duan turn to
the help of Sun Wukong (Huang Bo), who has been imprisoned for five centuries for his crimes in heaven.
Director: Stephen Chow, Chi-kin Kwok
Stars: Qi Shu, Zhang Wen, Bo Huang.
Rated: N/a


Info: 
http://www.imdb.com/title/tt2017561/

Trailer:


Format                         : MPEG-4
File size                      : 351 MiB
Duration                       : 1h 49mn
Overall bit rate mode          : Variable
Overall bit rate               : 447 Kbps
Source                         : 720p.BluRay.DTS.x264-HDWinG

Video
Format                         : AVC
Bit rate                       : 404 Kbps
Width                          : 720 pixels
Height                         : 304 pixels
Display aspect ratio           : 2.35:1
Frame rate mode                : Constant
Frame rate                     : 24.000 fps
Stream size                    : 316 MiB (90%)
Writing library                : x264 core 130 r2273

Audio
Format                         : AAC
Bit rate mode                  : Variable
Bit rate                       : 40.0 Kbps
Channel(s)                     : 2 channels
Channel positions              : Front: L R
Sampling rate                  : 44.1 KHz
Stream size                    : 31.4 MiB (9%)
Language                       : Chinese

Subtitle                       : Yes(English)
 
http://www.ultraimg.com/images/wGvEa.png 
http://www.ultraimg.com/images/mF9Vq.png 
http://www.ultraimg.com/images/zn6k8.png 
http://www.ultraimg.com/images/U6Xi7.png 
http://www.ultraimg.com/images/rNc9n.png 
http://www.ultraimg.com/images/QjUMN.png


----------------------------------------------------------------------------------------------------


Encoded using revolutionary 10bit encoding, which enables us to provide you more crispier 
and sharper images at small sizes, just make sure you follow our instructions without a fault.
Recommend to you to use latest version of VLC player. Install K-Lite Codec Pack or shark007 codecs
in case of any kind of problem in playback (For non-VLC Media Player users). Alternatively, install
Core AVC codecs, the fastest decoder that there is coupled with Community Center Codec Pack and play
on Windows Media Player Classic. Check sample to be sure.
Enjoy!

Encoder Notes:Looking For Early Access To Anything You Can Provide DVDScr, R5, DVDR, BluRay, Direct
Audio, Music Releases and Seedboxes. We require dedicated servers, so as to do more 
and fast releases of movies.
If You Got anything to offer please contact us at "contact@p2pdl.com".

Face book Fan Page:   
http://www.fb.me/p2pdl